# xmcd
#
# Track frame offsets:
#	150
#	12527
#	25895
#	40534
#	54874
#	68839
#	83442
#	96577
#	110320
#	124509
#	137090
#	149408
#	161804
#	175912
#	188019
#	201165
#	214594
#	227687
#	241906
#	255426
#	269053
#	281799
#	297606
#	312757
#	327146
#
# Disc length: 4545 seconds
#
# Revision: 0
# Processed by: cddbd v1.5.1PL0 Copyright (c) Steve Scherf et al.
# Submitted via: audiograbber 1.83.01
#
DISCID=6a11bf19
DTITLE=Various Artist - The Paramount Masters - CD 1/5
DYEAR=1900
DGENRE=Blues
TTITLE0=Bobby Grant - Nappy Head Blues
TTITLE1=Lottie Beaman - Red River Blues
TTITLE2=Meade Lux Lewis - Honky Tonk Train Blues
TTITLE3=Bo Weevil Jackson - You Can't Keep No Brown
TTITLE4=Teddy Darby - Lawdy, Lawdy, Worried Blues
TTITLE5=Wesley Wallace - No.29
TTITLE6=Blind Joe Reynolds - Outside Woman Blues
TTITLE7=William Moore - Old Country Rock
TTITLE8=James 'Boodle It' Wiggins - Keep A-Knockin'
TTITLE9=George 'Bullet' Williams - Touch Me Light, Mama
TTITLE10=Moanin' Bernice Edwards - Jack of All Trades
TTITLE11=Harum Scarums - Come on In (Ain't Nobody Here But Me)
TTITLE12=Sweet Papa Stovepipe - All Birds Look Like Chicken to Me
TTITLE13=Charlie 'Dad' Nelson - Cotton Field Blues
TTITLE14=Ma Rainey - Traveling Blues
TTITLE15=Charlie Spand - Soon This Morning Blues
TTITLE16=Papa Charlie Jackson - Gay Cattin'
TTITLE17=King Solomon Hill - Whoopee Blues
TTITLE18=Geechie Wiley - Eagles on a Half
TTITLE19=Washboard Walter - Wasn't It Sad About Lemon
TTITLE20=George Hannah - Freakish Man Blues
TTITLE21=Bumble Bee Slim - Rough, Rugged Road Blues
TTITLE22=Rube Lacy - Mississippi Jail House Groan
TTITLE23=Marshall Owens - Try Me, One More Time
TTITLE24=Mary Johnson - Barrel House Flat Blues
EXTD=JSP7723A
EXTT0=
EXTT1=
EXTT2=
EXTT3=
EXTT4=
EXTT5=
EXTT6=
EXTT7=
EXTT8=
EXTT9=
EXTT10=
EXTT11=
EXTT12=
EXTT13=
EXTT14=
EXTT15=
EXTT16=
EXTT17=
EXTT18=
EXTT19=
EXTT20=
EXTT21=
EXTT22=
EXTT23=
EXTT24=
PLAYORDER=
